PathFileType	4	(X/Y/Z)	/Users/itak/Documents/Research/Walk-IL/dataset/trc/00172_00008.trc
DataRate	CameraRate	NumFrames	NumMarkers	Units	OrigDataRate	OrigDataStartFrame	OrigNumFrames
100.000000	100.000000	4	53	mm	100.000000	144	579
Frame#	Time	RPSI			LPSI			L3			STRN			T10			C7			CLAV			RBAK			LBAK			LSHO			LUPA			LAEL			LAOL			LWTS			LWPS			LFRA			LIFD			LHPS			LHTS			RSHO			RUPA			RAEL			RAOL			RWTS			RWPS			RFRA			RIFD			RHTS			RHPS			RBHD			LFHD			RFHD			LBHD			LHIP			RHIP			RASI			LASI			LKNE			LTHI			LANK			LTIP			LTOE			LMT1			LMT5			LHEE			RKNE			RANK			RTIP			RTOE			RMT1			RMT5			RHEE			RTHI			
		X1	Y1	Z1	X2	Y2	Z2	X3	Y3	Z3	X4	Y4	Z4	X5	Y5	Z5	X6	Y6	Z6	X7	Y7	Z7	X8	Y8	Z8	X9	Y9	Z9	X10	Y10	Z10	X11	Y11	Z11	X12	Y12	Z12	X13	Y13	Z13	X14	Y14	Z14	X15	Y15	Z15	X16	Y16	Z16	X17	Y17	Z17	X18	Y18	Z18	X19	Y19	Z19	X20	Y20	Z20	X21	Y21	Z21	X22	Y22	Z22	X23	Y23	Z23	X24	Y24	Z24	X25	Y25	Z25	X26	Y26	Z26	X27	Y27	Z27	X28	Y28	Z28	X29	Y29	Z29	X30	Y30	Z30	X31	Y31	Z31	X32	Y32	Z32	X33	Y33	Z33	X34	Y34	Z34	X35	Y35	Z35	X36	Y36	Z36	X37	Y37	Z37	X38	Y38	Z38	X39	Y39	Z39	X40	Y40	Z40	X41	Y41	Z41	X42	Y42	Z42	X43	Y43	Z43	X44	Y44	Z44	X45	Y45	Z45	X46	Y46	Z46	X47	Y47	Z47	X48	Y48	Z48	X49	Y49	Z49	X50	Y50	Z50	X51	Y51	Z51	X52	Y52	Z52	X53	Y53	Z53	

145	1.44	756.4461669921875	1069.09814453125	307.8047180175781	734.0741577148438	1074.50244140625	188.1697540283203	749.5816650390625	1112.576049804688	252.1722412109375	1029.62646484375	1286.848510742188	197.631103515625	737.6363525390625	1275.661865234375	255.6803894042969	835.356201171875	1534.434204101562	233.6364593505859	1015.205200195312	1403.72265625	195.5895233154297	769.7586059570312	1366.382690429688	352.7749633789062	805.229736328125	1513.666015625	135.8458251953125	862.8189697265625	1494.248413085938	43.57955169677734	803.4037475585938	1367.08935546875	-20.95659637451172	795.4134521484375	1149.1630859375	-42.29574584960938	766.3733520507812	1133.756713867188	39.67489624023438	920.0526123046875	923.2119750976562	-37.74672698974609	832.59423828125	896.0702514648438	-57.57921981811523	808.5339965820312	1037.621826171875	-58.96791458129883	955.2264404296875	740.2717895507812	-25.70219421386719	859.6780395507812	828.115966796875	-59.19845199584961	931.1342163085938	846.2211303710938	-61.51877212524414	933.3785400390625	1496.801513671875	398.2816162109375	921.758544921875	1430.054931640625	469.9694213867188	894.1288452148438	1139.400634765625	519.9700927734375	864.5068359375	1136.541625976562	429.0111694335938	1012.468200683594	909.6315307617188	454.5801696777344	949.5940551757812	891.0856323242188	514.5579223632812	918.3901977539062	1064.523193359375	526.6103515625	1013.565673828125	724.82080078125	413.7857971191406	1035.192260742188	814.3936157226562	450.2289123535156	971.6939086914062	807.6084594726562	498.6354370117188	924.7386474609375	1673.744262695312	303.5279541015625	1061.30126953125	1725.661499023438	141.9463043212891	1089.985717773438	1715.052001953125	267.6817016601562	885.721435546875	1692.927978515625	172.4957427978516	808.8909301757812	1006.003051757812	47.39206695556641	927.957763671875	1012.060302734375	401.146484375	997.356689453125	1033.560668945312	332.1877746582031	940.2452392578125	1038.4755859375	77.75259399414062	964.0726318359375	514.6314697265625	12.45605087280273	919.3348999023438	657.1563110351562	8.503848075866699	756.7081909179688	78.30201721191406	31.78373336791992	861.6055908203125	300.5072937011719	10.05180644989014	972.6622314453125	64.99697875976562	18.9215087890625	933.3281860351562	66.03330993652344	73.13531494140625	854.6055297851562	57.46012115478516	-23.4581241607666	720.1318359375	87.51836395263672	108.9554214477539	974.2108154296875	515.2620849609375	343.6708374023438	871.9886474609375	39.11365127563477	340.5550537109375	983.9370727539062	392.8568725585938	319.2623901367188	1092.92333984375	39.07384872436523	290.7395935058594	1033.781982421875	35.68753051757812	248.7136535644531	985.81494140625	34.43143081665039	367.9331665039062	815.8901977539062	37.61201095581055	277.8783264160156	990.4454345703125	784.3009033203125	384.7994384765625	
146	1.45	753.9349975585938	1069.25146484375	307.9893798828125	731.6256713867188	1074.80517578125	188.3647918701172	747.177734375	1112.6015625	252.5953826904297	1026.928344726562	1287.311401367188	197.4676971435547	735.199951171875	1275.760864257812	256.3412170410156	832.5545043945312	1534.652954101562	234.1349029541016	1012.39501953125	1404.17724609375	195.3998870849609	767.4570922851562	1366.5361328125	353.4242858886719	802.066650390625	1513.956298828125	136.5201110839844	859.2262573242188	1494.6259765625	43.99949645996094	799.1957397460938	1367.506591796875	-20.13492774963379	790.4716186523438	1149.569580078125	-41.12912750244141	762.317626953125	1134.295288085938	41.19573974609375	914.96728515625	923.5214233398438	-37.62112426757812	827.3007202148438	896.3843383789062	-56.52412796020508	803.3306884765625	1037.983276367188	-57.82837295532227	950.2188110351562	740.5719604492188	-25.68355751037598	854.3515014648438	828.425537109375	-58.31951141357422	925.7842407226562	846.4862670898438	-61.33326721191406	931.1439208984375	1497.08837890625	398.4647827148438	919.7911376953125	1430.313110351562	470.1602783203125	892.89453125	1139.68701171875	520.0530395507812	862.8931274414062	1136.700927734375	429.1985473632812	1010.516479492188	909.4985961914062	455.0538330078125	947.9088134765625	891.4222412109375	515.4354858398438	917.0474853515625	1064.926513671875	526.78857421875	1010.875244140625	724.4122314453125	415.3342895507812	1032.98486328125	814.1559448242188	451.1229858398438	969.7164306640625	807.8409423828125	499.9083862304688	922.2670288085938	1673.826171875	304.2011108398438	1058.543212890625	1726.014282226562	142.4656066894531	1087.507446289062	1714.931640625	268.0628051757812	882.9691772460938	1693.56689453125	173.3402099609375	806.6009521484375	1006.500122070312	47.51605987548828	925.2307739257812	1012.089538574219	401.4939575195312	994.8118896484375	1033.823974609375	332.6671447753906	937.8252563476562	1038.9189453125	78.19999694824219	963.096435546875	515.256103515625	11.64678955078125	918.290771484375	657.9635620117188	8.457801818847656	742.862060546875	85.37702178955078	34.65906524658203	854.6029052734375	303.8993530273438	11.09098625183105	958.2960205078125	65.22296142578125	20.29526138305664	919.2645874023438	67.93563842773438	74.87537384033203	839.632080078125	61.07474517822266	-21.11219787597656	707.1170043945312	96.13288879394531	111.9797973632812	972.876708984375	515.4981689453125	343.7919616699219	872.0209350585938	39.12397384643555	340.58740234375	983.0687255859375	393.1544494628906	319.3258361816406	1092.964721679688	39.05556869506836	290.65380859375	1033.826293945312	35.75209045410156	248.6394958496094	985.8429565429688	34.44010543823242	367.9195861816406	815.9973754882812	37.65876770019531	277.9511413574219	988.3007202148438	784.7627563476562	384.8916625976562	
147	1.46	751.3992309570312	1069.375610351562	308.0788269042969	729.18798828125	1075.041015625	188.4559173583984	744.7554321289062	1112.555053710938	252.9002990722656	1024.187866210938	1287.819702148438	197.3083038330078	732.6729736328125	1275.808471679688	256.8385314941406	829.596923828125	1534.847412109375	234.5030517578125	1009.499267578125	1404.658081054688	195.2062377929688	764.9901123046875	1366.63525390625	353.90966796875	798.8218994140625	1514.206665039062	137.0541229248047	855.6021728515625	1494.964477539062	44.3180046081543	794.9913940429688	1367.892944335938	-19.43720817565918	785.5196533203125	1149.943359375	-40.0746955871582	758.234375	1134.813354492188	42.59746170043945	909.8191528320312	923.7831420898438	-37.54509735107422	821.962158203125	896.6659545898438	-55.56081008911133	798.100341796875	1038.317749023438	-56.79067611694336	945.1067504882812	740.8115844726562	-25.68712615966797	848.9601440429688	828.684814453125	-57.51149749755859	920.3739013671875	846.7110595703125	-61.19136428833008	928.666748046875	1497.401977539062	398.5885925292969	917.5249633789062	1430.609130859375	470.2809143066406	891.3612670898438	1139.998657226562	520.0458984375	861.0999755859375	1136.892822265625	429.2425842285156	1008.528259277344	909.4918212890625	455.5290832519531	946.1152954101562	891.81103515625	516.2053833007812	915.4764404296875	1065.34423828125	526.8954467773438	1008.394226074219	724.1554565429688	416.8349609375	1030.839599609375	814.0759887695312	452.0316467285156	967.7277221679688	808.1529541015625	501.0841064453125	919.5406494140625	1673.95556640625	304.7369384765625	1055.557250976562	1726.410766601562	142.8593597412109	1084.7646484375	1714.939697265625	268.3280334472656	879.9915771484375	1694.164794921875	174.0333251953125	804.378662109375	1006.909912109375	47.59063339233398	922.444091796875	1012.12353515625	401.7901306152344	992.2294921875	1034.085083007812	333.1081237792969	935.4650268554688	1039.280639648438	78.58904266357422	961.71630859375	515.73193359375	10.83352851867676	917.0126953125	658.6548461914062	8.348941802978516	728.464111328125	92.85019683837891	37.49419403076172	847.1795654296875	307.4129333496094	12.10688495635986	943.1489868164062	65.31002044677734	22.22934722900391	904.3135375976562	69.90383911132812	77.09062957763672	824.0581665039062	64.69891357421875	-18.47257614135742	693.4471435546875	105.4189987182617	114.8503646850586	971.44140625	515.7322998046875	343.9395141601562	872.0513305664062	39.12958908081055	340.6236572265625	982.1334228515625	393.4679565429688	319.420654296875	1092.9990234375	39.03525161743164	290.5665893554688	1033.888793945312	35.87023162841797	248.547607421875	985.867919921875	34.4411506652832	367.9128723144531	816.0839233398438	37.70509719848633	278.0158386230469	985.9764404296875	785.1030883789062	385.1306457519531	
148	1.47	748.8404541015625	1069.475952148438	308.0889282226562	726.7576293945312	1075.206298828125	188.4580078125	742.30908203125	1112.457641601562	253.0773620605469	1021.407653808594	1288.34912109375	197.1490325927734	730.05615234375	1275.811157226562	257.1793823242188	826.4989624023438	1535.010986328125	234.7420501708984	1006.52685546875	1405.142456054688	195.0087127685547	762.3643188476562	1366.683837890625	354.2349548339844	795.5133666992188	1514.40478515625	137.4439849853516	851.9705810546875	1495.248291015625	44.53149795532227	790.8175048828125	1368.232055664062	-18.8709545135498	780.580322265625	1150.274780273438	-39.14077758789062	754.1234130859375	1135.302734375	43.86641311645508	904.6188354492188	923.9763793945312	-37.51689147949219	816.5836181640625	896.9072265625	-54.70334625244141	792.859619140625	1038.611938476562	-55.86435699462891	939.8878784179688	740.9741821289062	-25.72511100769043	843.507568359375	828.8836669921875	-56.7894172668457	914.908935546875	846.8756103515625	-61.10163497924805	925.9634399414062	1497.728759765625	398.6504211425781	914.9802856445312	1430.929443359375	470.3331298828125	889.520751953125	1140.324096679688	519.972412109375	859.1082763671875	1137.1103515625	429.1705932617188	1006.501342773438	909.6070556640625	456.001953125	944.2013549804688	892.2354125976562	516.8564453125	913.6764526367188	1065.763061523438	526.9514770507812	1006.136291503906	724.0562133789062	418.2436218261719	1028.758911132812	814.1536254882812	452.9338684082031	965.7210083007812	808.5284423828125	502.1332397460938	916.56396484375	1674.118896484375	305.1379699707031	1052.339965820312	1726.854370117188	143.129638671875	1081.751098632812	1715.080810546875	268.4864196777344	876.7853393554688	1694.695434570312	174.5738677978516	802.1966552734375	1007.23974609375	47.61034393310547	919.6275634765625	1012.155212402344	402.0270690917969	989.6124877929688	1034.32568359375	333.4917297363281	933.143310546875	1039.561157226562	78.91119384765625	959.8828125	516.0449829101562	10.01480007171631	915.45654296875	659.2174682617188	8.172465324401855	713.671875	100.6310348510742	40.24190521240234	839.3712768554688	310.9921264648438	13.06878757476807	927.345947265625	65.35690307617188	24.61868476867676	888.6387329101562	71.957763671875	79.68405151367188	808.0205688476562	68.34972381591797	-15.61929702758789	679.3257446289062	115.2226409912109	117.5423431396484	969.9280395507812	515.9622802734375	344.097412109375	872.080322265625	39.13266754150391	340.6580200195312	981.1449584960938	393.794189453125	319.5284729003906	1093.025390625	39.01771926879883	290.4889831542969	1033.971923828125	36.04549789428711	248.4351501464844	985.889404296875	34.43939590454102	367.9078979492188	816.1478881835938	37.74797058105469	278.0684204101562	983.5238037109375	785.3479614257812	385.4651489257812	
